<svg xmlns="http://www.w3.org/2000/svg" viewBox="0 0 720 520" width="720" height="520">
  <defs>
    <linearGradient id="shadow" x1="0" y1="0" x2="0" y2="1">
      <stop offset="0%" stop-color="#000" stop-opacity="0.3"/>
      <stop offset="100%" stop-color="#000" stop-opacity="0"/>
    </linearGradient>
    <filter id="glow">
      <feGaussianBlur stdDeviation="2" result="blur"/>
      <feMerge><feMergeNode in="blur"/><feMergeNode in="SourceGraphic"/></feMerge>
    </filter>
  </defs>

  <!-- Title -->
  <text x="360" y="30" text-anchor="middle" fill="#e2e8f0" font-family="system-ui,-apple-system,sans-serif" font-size="20" font-weight="700">flexfetch themes</text>
  <text x="360" y="52" text-anchor="middle" fill="#94a3b8" font-family="SFMono-Regular,Consolas,monospace" font-size="12">flexfetch --theme &lt;name&gt;</text>

  <!-- ==================== CATPPUCCIN ==================== -->
  <g transform="translate(0, 70)">
    <!-- Shadow -->
    <rect x="8" y="8" width="704" height="82" rx="8" fill="url(#shadow)"/>
    <!-- Window bg -->
    <rect x="0" y="0" width="720" height="82" rx="8" fill="#1e1e2e"/>
    <!-- Title bar -->
    <rect x="0" y="0" width="720" height="24" rx="8" fill="#181825"/>
    <rect x="0" y="12" width="720" height="12" fill="#181825"/>
    <!-- Traffic lights -->
    <circle cx="14" cy="12" r="4" fill="#ff5555"/>
    <circle cx="28" cy="12" r="4" fill="#f1fa8c"/>
    <circle cx="42" cy="12" r="4" fill="#50fa7b"/>
    <!-- Title -->
    <text x="360" y="16" text-anchor="middle" fill="#6c7086" font-family="system-ui,sans-serif" font-size="10" font-weight="500">catppuccin</text>

    <!-- OS line -->
    <text x="12" y="48" fill="#89b4fa" font-family="SFMono-Regular,Consolas,monospace" font-size="11">OS<tspan fill="#585b70">:</tspan><tspan fill="#a6e3a1"> CachyOS x86_64</tspan></text>
    <!-- Kernel line -->
    <text x="12" y="66" fill="#89b4fa" font-family="SFMono-Regular,Consolas,monospace" font-size="11">Kernel<tspan fill="#585b70">:</tspan><tspan fill="#a6e3a1"> Linux 7.1.3-2-cachyos</tspan></text>
    <!-- Colors -->
    <text x="320" y="66" fill="#f38ba8" font-family="monospace" font-size="10">&#x2588;&#x2588;</text>
    <text x="334" y="66" fill="#fab387" font-family="monospace" font-size="10">&#x2588;&#x2588;</text>
    <text x="348" y="66" fill="#f9e2af" font-family="monospace" font-size="10">&#x2588;&#x2588;</text>
    <text x="362" y="66" fill="#a6e3a1" font-family="monospace" font-size="10">&#x2588;&#x2588;</text>
    <text x="376" y="66" fill="#89b4fa" font-family="monospace" font-size="10">&#x2588;&#x2588;</text>
    <text x="390" y="66" fill="#cba6f7" font-family="monospace" font-size="10">&#x2588;&#x2588;</text>
    <text x="404" y="66" fill="#94e2d5" font-family="monospace" font-size="10">&#x2588;&#x2588;</text>
    <text x="418" y="66" fill="#bac2de" font-family="monospace" font-size="10">&#x2588;&#x2588;</text>
  </g>

  <!-- ==================== DRACULA ==================== -->
  <g transform="translate(0, 160)">
    <rect x="8" y="8" width="704" height="82" rx="8" fill="url(#shadow)"/>
    <rect x="0" y="0" width="720" height="82" rx="8" fill="#282a36"/>
    <rect x="0" y="0" width="720" height="24" rx="8" fill="#21222c"/>
    <rect x="0" y="12" width="720" height="12" fill="#21222c"/>
    <circle cx="14" cy="12" r="4" fill="#ff5555"/>
    <circle cx="28" cy="12" r="4" fill="#f1fa8c"/>
    <circle cx="42" cy="12" r="4" fill="#50fa7b"/>
    <text x="360" y="16" text-anchor="middle" fill="#6272a4" font-family="system-ui,sans-serif" font-size="10" font-weight="500">dracula</text>

    <text x="12" y="48" fill="#ff79c6" font-family="SFMono-Regular,Consolas,monospace" font-size="11">OS<tspan fill="#6272a4">:</tspan><tspan fill="#8be9fd"> CachyOS x86_64</tspan></text>
    <text x="12" y="66" fill="#ff79c6" font-family="SFMono-Regular,Consolas,monospace" font-size="11">Kernel<tspan fill="#6272a4">:</tspan><tspan fill="#8be9fd"> Linux 7.1.3-2-cachyos</tspan></text>
    <text x="320" y="66" fill="#ff5555" font-family="monospace" font-size="10">&#x2588;&#x2588;</text>
    <text x="334" y="66" fill="#ffb86c" font-family="monospace" font-size="10">&#x2588;&#x2588;</text>
    <text x="348" y="66" fill="#f1fa8c" font-family="monospace" font-size="10">&#x2588;&#x2588;</text>
    <text x="362" y="66" fill="#50fa7b" font-family="monospace" font-size="10">&#x2588;&#x2588;</text>
    <text x="376" y="66" fill="#8be9fd" font-family="monospace" font-size="10">&#x2588;&#x2588;</text>
    <text x="390" y="66" fill="#bd93f9" font-family="monospace" font-size="10">&#x2588;&#x2588;</text>
    <text x="404" y="66" fill="#50fa7b" font-family="monospace" font-size="10">&#x2588;&#x2588;</text>
    <text x="418" y="66" fill="#f8f8f2" font-family="monospace" font-size="10">&#x2588;&#x2588;</text>
  </g>

  <!-- ==================== NORD ==================== -->
  <g transform="translate(0, 250)">
    <rect x="8" y="8" width="704" height="82" rx="8" fill="url(#shadow)"/>
    <rect x="0" y="0" width="720" height="82" rx="8" fill="#2e3440"/>
    <rect x="0" y="0" width="720" height="24" rx="8" fill="#3b4252"/>
    <rect x="0" y="12" width="720" height="12" fill="#3b4252"/>
    <circle cx="14" cy="12" r="4" fill="#bf616a"/>
    <circle cx="28" cy="12" r="4" fill="#ebcb8b"/>
    <circle cx="42" cy="12" r="4" fill="#a3be8c"/>
    <text x="360" y="16" text-anchor="middle" fill="#4c566a" font-family="system-ui,sans-serif" font-size="10" font-weight="500">nord</text>

    <text x="12" y="48" fill="#81a1c1" font-family="SFMono-Regular,Consolas,monospace" font-size="11">OS<tspan fill="#4c566a">:</tspan><tspan fill="#a3be8c"> CachyOS x86_64</tspan></text>
    <text x="12" y="66" fill="#81a1c1" font-family="SFMono-Regular,Consolas,monospace" font-size="11">Kernel<tspan fill="#4c566a">:</tspan><tspan fill="#a3be8c"> Linux 7.1.3-2-cachyos</tspan></text>
    <text x="320" y="66" fill="#bf616a" font-family="monospace" font-size="10">&#x2588;&#x2588;</text>
    <text x="334" y="66" fill="#d08770" font-family="monospace" font-size="10">&#x2588;&#x2588;</text>
    <text x="348" y="66" fill="#ebcb8b" font-family="monospace" font-size="10">&#x2588;&#x2588;</text>
    <text x="362" y="66" fill="#a3be8c" font-family="monospace" font-size="10">&#x2588;&#x2588;</text>
    <text x="376" y="66" fill="#81a1c1" font-family="monospace" font-size="10">&#x2588;&#x2588;</text>
    <text x="390" y="66" fill="#b48ead" font-family="monospace" font-size="10">&#x2588;&#x2588;</text>
    <text x="404" y="66" fill="#8fbcbb" font-family="monospace" font-size="10">&#x2588;&#x2588;</text>
    <text x="418" y="66" fill="#eceff4" font-family="monospace" font-size="10">&#x2588;&#x2588;</text>
  </g>

  <!-- ==================== GRUVBOX ==================== -->
  <g transform="translate(0, 340)">
    <rect x="8" y="8" width="704" height="82" rx="8" fill="url(#shadow)"/>
    <rect x="0" y="0" width="720" height="82" rx="8" fill="#282828"/>
    <rect x="0" y="0" width="720" height="24" rx="8" fill="#32302f"/>
    <rect x="0" y="12" width="720" height="12" fill="#32302f"/>
    <circle cx="14" cy="12" r="4" fill="#fb4934"/>
    <circle cx="28" cy="12" r="4" fill="#fabd2f"/>
    <circle cx="42" cy="12" r="4" fill="#b8bb26"/>
    <text x="360" y="16" text-anchor="middle" fill="#928374" font-family="system-ui,sans-serif" font-size="10" font-weight="500">gruvbox</text>

    <text x="12" y="48" fill="#d79921" font-family="SFMono-Regular,Consolas,monospace" font-size="11">OS<tspan fill="#928374">:</tspan><tspan fill="#b8bb26"> CachyOS x86_64</tspan></text>
    <text x="12" y="66" fill="#d79921" font-family="SFMono-Regular,Consolas,monospace" font-size="11">Kernel<tspan fill="#928374">:</tspan><tspan fill="#b8bb26"> Linux 7.1.3-2-cachyos</tspan></text>
    <text x="320" y="66" fill="#fb4934" font-family="monospace" font-size="10">&#x2588;&#x2588;</text>
    <text x="334" y="66" fill="#fe8019" font-family="monospace" font-size="10">&#x2588;&#x2588;</text>
    <text x="348" y="66" fill="#d79921" font-family="monospace" font-size="10">&#x2588;&#x2588;</text>
    <text x="362" y="66" fill="#b8bb26" font-family="monospace" font-size="10">&#x2588;&#x2588;</text>
    <text x="376" y="66" fill="#83a598" font-family="monospace" font-size="10">&#x2588;&#x2588;</text>
    <text x="390" y="66" fill="#d3869b" font-family="monospace" font-size="10">&#x2588;&#x2588;</text>
    <text x="404" y="66" fill="#8ec07c" font-family="monospace" font-size="10">&#x2588;&#x2588;</text>
    <text x="418" y="66" fill="#ebdbb2" font-family="monospace" font-size="10">&#x2588;&#x2588;</text>
  </g>

  <!-- ==================== TOKYO NIGHT ==================== -->
  <g transform="translate(0, 430)">
    <rect x="8" y="8" width="704" height="82" rx="8" fill="url(#shadow)"/>
    <rect x="0" y="0" width="720" height="82" rx="8" fill="#1a1b26"/>
    <rect x="0" y="0" width="720" height="24" rx="8" fill="#24283b"/>
    <rect x="0" y="12" width="720" height="12" fill="#24283b"/>
    <circle cx="14" cy="12" r="4" fill="#f7768e"/>
    <circle cx="28" cy="12" r="4" fill="#e0af68"/>
    <circle cx="42" cy="12" r="4" fill="#9ece6a"/>
    <text x="360" y="16" text-anchor="middle" fill="#565f89" font-family="system-ui,sans-serif" font-size="10" font-weight="500">tokyo-night</text>

    <text x="12" y="48" fill="#7aa2f7" font-family="SFMono-Regular,Consolas,monospace" font-size="11">OS<tspan fill="#565f89">:</tspan><tspan fill="#9ece6a"> CachyOS x86_64</tspan></text>
    <text x="12" y="66" fill="#7aa2f7" font-family="SFMono-Regular,Consolas,monospace" font-size="11">Kernel<tspan fill="#565f89">:</tspan><tspan fill="#9ece6a"> Linux 7.1.3-2-cachyos</tspan></text>
    <text x="320" y="66" fill="#f7768e" font-family="monospace" font-size="10">&#x2588;&#x2588;</text>
    <text x="334" y="66" fill="#ff9e64" font-family="monospace" font-size="10">&#x2588;&#x2588;</text>
    <text x="348" y="66" fill="#e0af68" font-family="monospace" font-size="10">&#x2588;&#x2588;</text>
    <text x="362" y="66" fill="#9ece6a" font-family="monospace" font-size="10">&#x2588;&#x2588;</text>
    <text x="376" y="66" fill="#7aa2f7" font-family="monospace" font-size="10">&#x2588;&#x2588;</text>
    <text x="390" y="66" fill="#bb9af7" font-family="monospace" font-size="10">&#x2588;&#x2588;</text>
    <text x="404" y="66" fill="#73daca" font-family="monospace" font-size="10">&#x2588;&#x2588;</text>
    <text x="418" y="66" fill="#a9b1d6" font-family="monospace" font-size="10">&#x2588;&#x2588;</text>
  </g>
</svg>
